<?xml version="1.0" encoding="UTF-8" standalone="no"?>
<svg
   xmlns:dc="http://purl.org/dc/elements/1.1/"
   xmlns:cc="http://creativecommons.org/ns#"
   xmlns:rdf="http://www.w3.org/1999/02/22-rdf-syntax-ns#"
   xmlns:svg="http://www.w3.org/2000/svg"
   xmlns="http://www.w3.org/2000/svg"
   xmlns:sodipodi="http://sodipodi.sourceforge.net/DTD/sodipodi-0.dtd"
   xmlns:inkscape="http://www.inkscape.org/namespaces/inkscape"
   version="1.1"
   x="0px"
   y="0px"
   viewBox="0 0 2000 1000"
   enable-background="new 0 0 1000 1000"
   xml:space="preserve"
   id="svg40"
   sodipodi:docname="object.svg"
   width="2000"
   height="1000"
   inkscape:version="1.0.1 (3bc2e813f5, 2020-09-07)"><defs
   id="defs44" /><sodipodi:namedview
   pagecolor="#ffffff"
   bordercolor="#666666"
   borderopacity="1"
   objecttolerance="10"
   gridtolerance="10"
   guidetolerance="10"
   inkscape:pageopacity="0"
   inkscape:pageshadow="2"
   inkscape:window-width="1312"
   inkscape:window-height="704"
   id="namedview42"
   showgrid="false"
   inkscape:zoom="0.19445436"
   inkscape:cx="422.95318"
   inkscape:cy="629.48551"
   inkscape:window-x="1254"
   inkscape:window-y="1179"
   inkscape:window-maximized="1"
   inkscape:current-layer="svg40" />
<metadata
   id="metadata2"> Svg Vector Icons : http://www.onlinewebfonts.com/icon <rdf:RDF><cc:Work
     rdf:about=""><dc:format>image/svg+xml</dc:format><dc:type
       rdf:resource="http://purl.org/dc/dcmitype/StillImage" /><dc:title></dc:title></cc:Work></rdf:RDF></metadata>
<g
   id="g38"
   transform="matrix(0.66620408,0,0,0.66620408,302.51617,172.63728)"><g
     id="g6"><path
       d="m 921.9,140 c 11.6,-8.2 14.4,7.7 14.9,-0.9 0.5,-8.8 6.6,-11.2 16.5,-11.2 h 2.5 c 0.4,0 0.8,0.2 1.3,0.2 16.5,-2.5 11.3,19.9 19.2,18.3 8,-1.6 11.8,6.7 8.8,11.6 -3,4.9 -12,18.3 -7.2,20.9 13.7,1.6 12,8.5 12,8.5 -2.3,6 -31,21.4 -31,21.4 -0.8,13.2 -56.9,150.1 -68.4,174.8 -11.6,24.7 -55.2,54.4 -68.4,61.8 -13.2,7.4 -94,126.1 -103.9,142.6 -9.9,16.5 -4.1,23.9 -4.1,23.9 7.4,1.6 26.4,18.1 26.4,35.4 0,17.3 -14,71.9 -14,71.9 25.8,1.8 36.7,13.2 22.3,32.6 -14.4,19.4 -44.5,3.1 -46.2,4.3 -1.6,1.2 -36.7,36.5 -36.7,36.5 64.7,-14.2 72.1,-2.7 80.6,2.3 8.4,4.9 24.1,24.9 3.1,30.7 -21,5.8 -36.1,-0.4 -36.1,-0.4 -67.8,17.5 -157.3,18.3 -163.9,6 C 543,818.8 445,840.5 445,840.5 43.8,915.3 21.8,835 14.1,824 6.4,813 3.1,760.2 61.4,810.8 c 58.3,50.6 326,-8.6 333.6,-9.7 25.5,-3.8 95.3,-4.9 85.2,-60.6 C 459.3,585.5 544,466.2 582.4,444.2 637,413 648.9,311.7 629.7,285.4 c -19.2,-26.4 6,-27.5 -8.8,-65.4 -14.8,-37.9 0,-41.2 0,-41.2 0,0 20.9,-3.9 33.8,20.9 13.2,20.3 23.9,9.1 63,8.5 39,-0.6 35.5,15.7 54.5,21.4 19,5.8 10.8,16.8 13.6,18.4 2.7,1.7 6,16.2 6,16.2 v 1.1 c 0,8.8 -17.8,23.6 -17.5,52.8 0.8,20.6 23.4,20.3 53.1,19.2 29.7,-1.1 65.1,-84.6 77,-107.7 11.8,-23.1 0.3,-21.2 -2.5,-33 -2.7,-11.8 17.6,-7.7 16.8,-19.5 -0.8,-11.8 -13.5,-19 -2.5,-31.9 0.9,-1 1.7,-1.8 2.5,-2.6 z"
       id="path4" /></g><g
     id="g8" /><g
     id="g10" /><g
     id="g12" /><g
     id="g14" /><g
     id="g16" /><g
     id="g18" /><g
     id="g20" /><g
     id="g22" /><g
     id="g24" /><g
     id="g26" /><g
     id="g28" /><g
     id="g30" /><g
     id="g32" /><g
     id="g34" /><g
     id="g36" /></g>
</svg>
