<?xml version="1.0" encoding="UTF-8" standalone="no"?>
<svg
   xmlns:dc="http://purl.org/dc/elements/1.1/"
   xmlns:cc="http://creativecommons.org/ns#"
   xmlns:rdf="http://www.w3.org/1999/02/22-rdf-syntax-ns#"
   xmlns:svg="http://www.w3.org/2000/svg"
   xmlns="http://www.w3.org/2000/svg"
   xmlns:sodipodi="http://sodipodi.sourceforge.net/DTD/sodipodi-0.dtd"
   xmlns:inkscape="http://www.inkscape.org/namespaces/inkscape"
   width="200mm"
   height="100mm"
   viewBox="0 0 200 100"
   version="1.1"
   id="svg8"
   inkscape:version="1.0.1 (3bc2e813f5, 2020-09-07)"
   sodipodi:docname="objet.svg">
  <defs
     id="defs2" />
  <sodipodi:namedview
     id="base"
     pagecolor="#ffffff"
     bordercolor="#666666"
     borderopacity="1.0"
     inkscape:pageopacity="0.0"
     inkscape:pageshadow="2"
     inkscape:zoom="0.49497475"
     inkscape:cx="457.89698"
     inkscape:cy="377.33069"
     inkscape:document-units="mm"
     inkscape:current-layer="layer1"
     inkscape:document-rotation="0"
     showgrid="false"
     inkscape:window-width="1312"
     inkscape:window-height="704"
     inkscape:window-x="1254"
     inkscape:window-y="1179"
     inkscape:window-maximized="1" />
  <metadata
     id="metadata5">
    <rdf:RDF>
      <cc:Work
         rdf:about="">
        <dc:format>image/svg+xml</dc:format>
        <dc:type
           rdf:resource="http://purl.org/dc/dcmitype/StillImage" />
        <dc:title></dc:title>
      </cc:Work>
    </rdf:RDF>
  </metadata>
  <g
     inkscape:label="Calque 1"
     inkscape:groupmode="layer"
     id="layer1">
    <path
       style="fill:#000000;stroke-width:0.240642"
       d="m 73.066573,76.69115 c -3.609101,-0.273713 -7.406745,-1.253505 -12.217607,-3.152145 -4.46669,-1.762807 -9.671403,-4.883411 -16.841943,-10.097966 -2.015221,-1.46551 -2.394448,-1.647122 -3.970585,-1.90153 -5.374625,-0.867535 -9.792697,-3.998397 -11.932416,-8.455896 -1.117593,-2.328188 -1.482943,-4.042622 -1.477087,-6.93135 0.0089,-4.410504 1.418844,-8.041544 4.334905,-11.164034 1.455929,-1.558994 2.039086,-1.982246 4.151969,-3.013472 3.067551,-1.497167 4.41475,-1.812674 7.752251,-1.815534 3.299963,-0.0028 4.978418,0.349674 7.570956,1.590013 4.662629,2.230726 7.513752,6.428235 8.185005,12.050212 0.30337,2.540828 0.21194,3.696688 -0.507575,6.416912 -1.136011,4.294827 -4.228421,8.058738 -8.099386,9.858123 -0.689305,0.320417 -1.25323,0.645283 -1.253165,0.721925 2.41e-4,0.402403 7.624792,6.088101 8.662978,6.460147 0.198529,0.07115 0.546617,0.288628 0.77353,0.483292 0.578281,0.496105 2.993039,1.792744 5.964433,3.202687 1.389705,0.659425 2.743313,1.305196 3.008019,1.435049 1.217805,0.597402 4.560937,1.492475 6.858284,1.836201 2.019598,0.302171 2.940016,0.32745 4.58585,0.125946 2.31513,-0.283444 4.418212,-0.94754 5.547709,-1.751812 0.553779,-0.394327 0.859981,-0.476321 1.13379,-0.303606 0.640819,0.404218 0.589952,0.770809 -0.208092,1.499712 -2.467654,2.253854 -6.805172,3.302755 -12.021823,2.907126 z M 47.634228,58.673095 c 2.792065,-1.418505 4.776655,-4.130956 5.607289,-7.6638 0.472208,-2.008388 0.335912,-7.149629 -0.247204,-9.324865 -0.611179,-2.27991 -2.148197,-5.173261 -3.49359,-6.576479 -1.783503,-1.86016 -3.774817,-2.725274 -6.614957,-2.873832 -5.710911,-0.298718 -9.599321,2.877958 -10.881848,8.890038 -0.581416,2.725495 -0.268409,7.79291 0.614307,9.945293 1.901636,4.636879 4.151229,7.067418 7.600778,8.212148 0.601178,0.199499 1.871322,0.298942 3.383057,0.264867 2.221564,-0.05008 2.552942,-0.121854 4.032168,-0.87337 z m 60.760332,2.082177 -0.074,-1.022726 -8.9639,-0.06309 c -8.693394,-0.06119 -8.963897,-0.0772 -8.963897,-0.53054 0,-0.352805 0.22132,-0.504604 0.902406,-0.618938 1.696321,-0.284765 2.365155,-0.596218 2.776784,-1.293051 0.370017,-0.626397 0.411627,-1.668021 0.410817,-10.285513 -9.6e-4,-9.07246 -0.0261,-9.629831 -0.468766,-10.35585 -0.482686,-0.791623 -1.607312,-1.274086 -2.976213,-1.276794 -0.549241,-0.0011 -0.663851,-0.09579 -0.601604,-0.49711 0.07588,-0.489189 0.179302,-0.495496 7.793003,-0.475219 7.64554,0.02036 7.72352,0.01554 8.52731,-0.526958 0.45784,-0.30901 1.08,-1.089742 1.42827,-1.79229 0.76338,-1.539909 0.88279,-1.660573 1.30039,-1.313997 0.27922,0.231736 0.12212,0.858772 -0.95819,3.824396 -1.45515,3.994592 -1.76252,4.669366 -2.1917,4.811342 -0.20798,0.0688 -0.3008,-0.205565 -0.3008,-0.889069 0,-1.312118 -0.42107,-1.457946 -4.20971,-1.457946 -2.38384,0 -3.05032,0.07516 -3.35331,0.378151 -0.30589,0.305886 -0.37753,0.98419 -0.37487,3.549463 0.005,4.632804 -0.2071,4.322652 2.881,4.216954 2.38081,-0.08149 2.64062,-0.138762 3.4581,-0.76228 0.48613,-0.370793 1.15484,-1.208898 1.48603,-1.862455 0.53858,-1.062842 1.31596,-1.610813 1.31596,-0.927613 0,0.480942 -2.44282,7.553515 -2.80381,8.117725 -0.46318,0.723927 -1.00521,0.330974 -0.86463,-0.626828 0.15836,-1.078958 -0.32228,-1.282049 -2.84805,-1.203438 l -2.23343,0.06951 -0.21073,0.721925 c -0.32995,1.130337 0.0199,6.360363 0.47722,7.134579 0.49557,0.838929 0.76784,0.904282 4.52285,1.085656 5.11939,0.247276 6.21955,-0.137209 7.47356,-2.61187 0.42529,-0.839271 0.72156,-1.160903 1.01089,-1.09741 0.51753,0.113571 0.53554,0.03578 -1.08711,4.693584 -1.06185,3.048023 -1.45531,3.910425 -1.78408,3.910425 -0.32419,0 -0.43892,-0.236652 -0.49579,-1.022727 z m 23.60481,0.85989 c -0.0134,-0.108968 -0.005,-0.549604 0.0184,-0.97919 0.0694,-1.26852 -0.30876,-1.316403 -9.67715,-1.225332 -6.25306,0.06079 -8.38704,0.0099 -8.46831,-0.201944 -0.16139,-0.420664 0.33682,-0.714494 1.5172,-0.894812 2.70157,-0.412693 2.67707,-0.307718 2.67707,-11.471724 0,-8.078081 -0.0481,-9.277363 -0.40243,-10.023959 -0.43237,-0.911151 -1.4921,-1.510772 -2.67005,-1.510772 -0.37484,0 -0.80301,-0.121484 -0.95149,-0.269965 -0.74691,-0.746913 -0.0745,-0.813046 7.49799,-0.737401 6.48595,0.06479 7.66331,0.02209 8.28723,-0.300549 0.78543,-0.406163 1.80334,-1.623703 2.05703,-2.460458 0.22423,-0.739579 0.8144,-1.187168 1.13829,-0.863282 0.21804,0.218043 -1.01587,4.087365 -2.57057,8.060797 -0.0906,0.231618 -0.36295,0.421123 -0.60518,0.421123 -0.36479,0 -0.41804,-0.137812 -0.31015,-0.802669 0.19274,-1.187741 -0.51323,-1.393327 -4.49949,-1.310297 l -3.24123,0.06751 -0.0661,3.910425 -0.0661,3.910425 2.23189,0.03813 c 1.22754,0.02097 2.44636,0.01782 2.70849,-0.007 0.8796,-0.08327 2.04362,-1.103676 2.71136,-2.376819 0.61351,-1.169743 0.9728,-1.474839 1.32366,-1.123983 0.18774,0.187748 -2.4348,7.832485 -2.83046,8.25081 -0.40854,0.431935 -0.89823,0.116392 -0.71505,-0.460758 0.0789,-0.248568 0.0253,-0.67261 -0.11899,-0.942315 -0.2384,-0.445443 -0.49317,-0.490372 -2.78071,-0.490372 h -2.51827 l 0.001,3.188501 c 0.002,5.658089 0.0641,5.715236 6.17568,5.715236 3.93437,0 4.08603,-0.01848 4.94537,-0.602412 0.55338,-0.376034 1.09382,-1.054265 1.43814,-1.804812 0.35637,-0.776803 0.70117,-1.202399 0.97415,-1.202399 0.23239,0 0.41534,0.135361 0.40655,0.300802 -0.009,0.165441 -0.63323,2.086427 -1.38766,4.268856 -0.99755,2.885769 -1.48546,3.989967 -1.78883,4.048392 -0.22944,0.04418 -0.42813,-0.0088 -0.44154,-0.117791 z M 69.978102,59.740497 c -3.28293,-0.747267 -5.248676,-2.627161 -6.2991,-6.02399 -0.194876,-0.630192 -0.349847,-3.6631 -0.448794,-8.783416 -0.158992,-8.227347 -0.188877,-8.436377 -1.305976,-9.134016 -0.265567,-0.165849 -0.980482,-0.372359 -1.588699,-0.45891 -0.855245,-0.121704 -1.1215,-0.265945 -1.174915,-0.636495 -0.06749,-0.468221 0.06672,-0.478288 5.895717,-0.442245 5.611436,0.0347 5.964784,0.06303 5.964784,0.478309 0,0.345976 -0.258588,0.478417 -1.195872,0.61249 -2.860535,0.409182 -2.895034,0.517613 -2.895034,9.099584 0,6.555487 0.02505,6.93474 0.567469,8.590024 1.063306,3.244888 3.082587,4.709019 6.531457,4.735804 3.319185,0.02578 5.382698,-1.456584 6.597741,-4.739615 0.403597,-1.090516 0.474225,-2.101398 0.563931,-8.07149 0.08887,-5.914186 0.04985,-6.962842 -0.29242,-7.859058 -0.4491,-1.175956 -1.445842,-1.800044 -2.874875,-1.800044 -0.742564,0 -0.866037,-0.07869 -0.866037,-0.551938 v -0.551937 l 5.233953,0.03846 c 4.952299,0.03639 5.233953,0.06285 5.233953,0.491777 0,0.367716 -0.242193,0.48288 -1.282523,0.609851 -1.503222,0.183465 -2.332471,0.835145 -2.687085,2.111696 -0.131414,0.473063 -0.239539,3.369991 -0.240276,6.437618 -0.0022,8.844859 -0.474918,10.972635 -2.990337,13.457943 -1.924655,1.901614 -3.454173,2.510517 -6.636667,2.642068 -1.458278,0.06028 -2.838059,-0.03114 -3.810395,-0.252466 z m 92.316218,-0.780711 c -0.48692,-0.633805 -1.18917,-1.481729 -1.56057,-1.884274 -0.37139,-0.402548 -1.37914,-1.547607 -2.23943,-2.544578 -0.86029,-0.996973 -2.86363,-3.278401 -4.45187,-5.069843 -1.58823,-1.791442 -3.20208,-3.624321 -3.58632,-4.073065 -0.38424,-0.448744 -1.57542,-1.838065 -2.64706,-3.08738 l -1.94843,-2.271483 -0.0715,7.806238 c -0.0449,4.903543 0.0214,8.127223 0.1784,8.669468 0.3463,1.196008 0.96024,1.668141 2.5867,1.989241 0.95905,0.18934 1.39735,0.389089 1.39735,0.636832 0,0.307804 -0.7708,0.370513 -5.23396,0.425815 -5.11178,0.06334 -5.23395,0.05351 -5.23395,-0.421123 0,-0.348003 0.15863,-0.485975 0.55874,-0.485975 0.3073,0 1.05637,-0.169561 1.66458,-0.376802 1.91755,-0.653373 1.8993,-0.537037 1.8178,-11.593179 -0.0587,-7.960129 -0.13038,-9.657734 -0.42675,-10.104925 -0.41724,-0.629564 -1.87527,-1.267324 -2.89732,-1.267324 -0.55662,0 -0.71705,-0.107678 -0.71705,-0.481283 0,-0.459001 0.15876,-0.481052 3.42914,-0.476288 l 3.42914,0.005 0.87941,1.378694 c 0.75192,1.178825 2.77719,3.674602 5.21958,6.432167 0.35167,0.397059 1.82604,2.075533 3.27636,3.729944 2.49342,2.844275 3.88902,4.381249 5.54443,6.106084 l 0.72192,0.7522 0.0696,-7.219246 c 0.0383,-3.970586 0.01,-7.552217 -0.0632,-7.959181 -0.20893,-1.164113 -1.27649,-2.015279 -2.7459,-2.18931 -1.05644,-0.125118 -1.24402,-0.220965 -1.18317,-0.604549 0.0398,-0.250721 0.15354,-0.451567 0.2528,-0.446324 0.0993,0.0052 2.4004,0.0095 5.11363,0.0095 4.77273,0 4.93315,0.01565 4.93315,0.481283 0,0.373605 -0.16042,0.481283 -0.71705,0.481283 -1.02205,0 -2.48007,0.637759 -2.89731,1.267324 -0.29748,0.448856 -0.37606,2.422352 -0.47654,11.96796 -0.11821,11.229489 -0.12885,11.431696 -0.60521,11.499959 -0.33887,0.04856 -0.75147,-0.27752 -1.37019,-1.082887 z"
       id="path953" />
  </g>
</svg>
