<?xml version="1.0" encoding="UTF-8" standalone="no"?>
<svg
   xmlns:dc="http://purl.org/dc/elements/1.1/"
   xmlns:cc="http://creativecommons.org/ns#"
   xmlns:rdf="http://www.w3.org/1999/02/22-rdf-syntax-ns#"
   xmlns:svg="http://www.w3.org/2000/svg"
   xmlns="http://www.w3.org/2000/svg"
   xmlns:sodipodi="http://sodipodi.sourceforge.net/DTD/sodipodi-0.dtd"
   xmlns:inkscape="http://www.inkscape.org/namespaces/inkscape"
   version="1.1"
   id="svg2"
   width="1200mm"
   height="600mm"
   viewBox="0 0 4535.4332 2267.7166"
   sodipodi:docname="Otter.svg"
   inkscape:version="1.0.1 (3bc2e813f5, 2020-09-07)">
  <metadata
     id="metadata8">
    <rdf:RDF>
      <cc:Work
         rdf:about="">
        <dc:format>image/svg+xml</dc:format>
        <dc:type
           rdf:resource="http://purl.org/dc/dcmitype/StillImage" />
        <dc:title></dc:title>
      </cc:Work>
    </rdf:RDF>
  </metadata>
  <defs
     id="defs6" />
  <sodipodi:namedview
     pagecolor="#ffffff"
     bordercolor="#666666"
     borderopacity="1"
     objecttolerance="10"
     gridtolerance="10"
     guidetolerance="10"
     inkscape:pageopacity="0"
     inkscape:pageshadow="2"
     inkscape:window-width="1312"
     inkscape:window-height="704"
     id="namedview4"
     showgrid="false"
     units="mm"
     inkscape:zoom="0.061901858"
     inkscape:cx="27.389765"
     inkscape:cy="273.42144"
     inkscape:window-x="1254"
     inkscape:window-y="1179"
     inkscape:window-maximized="1"
     inkscape:current-layer="g10" />
  <g
     inkscape:groupmode="layer"
     inkscape:label="Image"
     id="g10"
     transform="translate(-9.5902774,163.60917)">
    <path
       style="fill:#000000;stroke-width:1.33333"
       d="m 977.99595,1295.7849 c -28.04356,-6.5847 -53.99143,-16.019 -59.66635,-21.6939 -2.4361,-2.4361 -5.08736,-2.6965 -34.48632,-3.3876 -57.63861,-1.3549 -110.06871,-12.4258 -149.18066,-31.5002 -12.73115,-6.2088 -17.56225,-9.4699 -38.59083,-26.0498 -18.83596,-14.8511 -36.62362,-21.4974 -71.45089,-26.6973 -26.81949,-4.0043 -29.70092,-5.231 -54.62494,-23.2551 -21.35914,-15.4461 -28.77885,-19.3493 -44.59271,-23.458 -16.40516,-4.2625 -24.88911,-8.5915 -32.84509,-16.7596 -12.5483,-12.8828 -17.12729,-29.0534 -12.61869,-44.5624 1.43362,-4.9315 3.82889,-9.3638 6.49698,-12.0224 4.16969,-4.1548 4.44894,-4.2226 20.89284,-5.0685 20.2627,-1.0423 22.89057,-1.7589 32.09179,-8.7509 9.75035,-7.4093 25.79148,-15.6378 35.32708,-18.1215 4.68544,-1.2204 13.61622,-2.0337 22.33126,-2.0337 17.64572,0 19.64348,0.6138 81.90813,25.1644 93.40428,36.8288 109.99046,41.1073 145.67507,37.5782 43.42136,-4.2942 85.45614,-18.7801 137.99999,-47.5569 41.94829,-22.974 63.27459,-31.414 180.66669,-71.4999 84.4121,-28.82424 109.7249,-37.15444 144.6667,-47.60837 27.2879,-8.16405 45.4458,-16.78712 60,-28.49366 26.1541,-21.03684 57.6121,-64.67131 116.0123,-160.91709 39.9926,-65.90945 78.106,-111.49327 124.3958,-148.77824 40.7828,-32.84926 90.7451,-58.93733 134.1034,-70.0228 13.6791,-3.49735 30.7653,-6.5281 36.8162,-6.53047 4.0335,-0.002 1.7893,1.54339 -16.6666,11.47374 -30.0241,16.15466 -56.427,31.94272 -81.9945,49.02992 -45.1481,30.17334 -74.8669,66.3388 -122.2983,148.82785 -16.1572,28.09938 -48.2268,86.42895 -55.5831,101.09693 -15.3524,30.61173 -29.4152,69.39969 -38.7585,106.90306 -9.8807,39.66092 -15.3145,53.23623 -27.1304,67.78068 -3.1787,3.91275 -5.5807,7.29115 -5.3379,7.50755 0.2429,0.2165 5.2134,-0.366 11.0456,-1.2944 12.9137,-2.0558 15.413,-4.4118 19.4898,-18.37312 6.5503,-22.43146 6.6291,-22.59 15.7987,-31.77468 7.766,-7.77867 24.5517,-18.51295 26.2671,-16.79752 1.0366,1.0366 -8.8041,52.21438 -12.1046,62.95152 -3.568,11.6076 -10.4525,24.1065 -17.1412,31.1202 -2.3359,2.4495 -9.1989,7.4933 -15.2509,11.2085 -19.1748,11.7709 -36.1502,28.3902 -62.3954,61.0866 -6.8495,8.5332 -14.0462,16.5584 -15.9926,17.8337 -8.1057,5.3111 -18.2534,7.686 -35.9416,8.4119 l -17.3333,0.7113 -18,13.0094 c -60.2429,43.5405 -76.8511,50.0591 -198.6667,77.975 -66.1328,15.1553 -76.4391,18.3431 -83.0855,25.6987 -2.7661,3.0613 -2.0259,10.9761 1.3414,14.3434 2.505,2.505 12.3122,2.4883 27.7441,-0.047 17.399,-2.8587 26.6937,-2.6578 30,0.6485 8.5563,8.5564 -4.7086,19.3736 -37.1047,30.2579 -19.1943,6.4488 -32.49731,7.0693 -52.22865,2.4364 z"
       id="path837" />
  </g>
</svg>
