<?xml version="1.0" encoding="utf-8" standalone="no"?>
<!DOCTYPE svg PUBLIC "-//W3C//DTD SVG 1.1//EN"
  "http://www.w3.org/Graphics/SVG/1.1/DTD/svg11.dtd">
<!-- Created with matplotlib (https://matplotlib.org/) -->
<svg height="345.6pt" version="1.1" viewBox="0 0 460.8 345.6" width="460.8pt" xmlns="http://www.w3.org/2000/svg" xmlns:xlink="http://www.w3.org/1999/xlink">
 <metadata>
  <rdf:RDF xmlns:cc="http://creativecommons.org/ns#" xmlns:dc="http://purl.org/dc/elements/1.1/" xmlns:rdf="http://www.w3.org/1999/02/22-rdf-syntax-ns#">
   <cc:Work>
    <dc:type rdf:resource="http://purl.org/dc/dcmitype/StillImage"/>
    <dc:date>2020-12-17T17:59:19.788679</dc:date>
    <dc:format>image/svg+xml</dc:format>
    <dc:creator>
     <cc:Agent>
      <dc:title>Matplotlib v3.3.2, https://matplotlib.org/</dc:title>
     </cc:Agent>
    </dc:creator>
   </cc:Work>
  </rdf:RDF>
 </metadata>
 <defs>
  <style type="text/css">*{stroke-linecap:butt;stroke-linejoin:round;}</style>
 </defs>
 <g id="figure_1">
  <g id="patch_1">
   <path d="M 0 345.6 
L 460.8 345.6 
L 460.8 0 
L 0 0 
z
" style="fill:none;"/>
  </g>
  <g id="axes_1">
   <g id="patch_2">
    <path d="M 103.104 307.584 
L 369.216 307.584 
L 369.216 41.472 
L 103.104 41.472 
z
" style="fill:none;"/>
   </g>
   <g id="patch_3">
    <path clip-path="url(#p29bb7c90ed)" d="M 324.864 174.528 
L 315.9936 176.7456 
L 315.9936 174.572352 
L 236.16 174.572352 
L 236.16 174.483648 
L 315.9936 174.483648 
L 315.9936 172.3104 
z
" style="fill:#ff004a;stroke:#ff004a;stroke-linejoin:miter;"/>
   </g>
   <g id="patch_4">
    <path clip-path="url(#p29bb7c90ed)" d="M 236.16 85.824 
L 238.3776 94.6944 
L 236.204352 94.6944 
L 236.204352 174.528 
L 236.115648 174.528 
L 236.115648 94.6944 
L 233.9424 94.6944 
z
" style="fill:#ff004a;stroke:#ff004a;stroke-linejoin:miter;"/>
   </g>
   <g id="patch_5">
    <path clip-path="url(#p29bb7c90ed)" d="M 147.456 174.528 
L 156.3264 172.3104 
L 156.3264 174.483648 
L 236.16 174.483648 
L 236.16 174.572352 
L 156.3264 174.572352 
L 156.3264 176.7456 
z
" style="fill:#ff004a;stroke:#ff004a;stroke-linejoin:miter;"/>
   </g>
   <g id="patch_6">
    <path clip-path="url(#p29bb7c90ed)" d="M 236.16 263.232 
L 233.9424 254.3616 
L 236.115648 254.3616 
L 236.115648 174.528 
L 236.204352 174.528 
L 236.204352 254.3616 
L 238.3776 254.3616 
z
" style="fill:#ff004a;stroke:#ff004a;stroke-linejoin:miter;"/>
   </g>
   <g id="patch_7">
    <path clip-path="url(#p29bb7c90ed)" d="M 322.26592 88.42208 
L 317.56168 96.26248 
L 316.024962 94.725762 
L 236.191362 174.559362 
L 236.128638 174.496638 
L 315.962238 94.663038 
L 314.42552 93.12632 
z
" style="fill:#ff004a;stroke:#ff004a;stroke-linejoin:miter;"/>
   </g>
   <g id="patch_8">
    <path clip-path="url(#p29bb7c90ed)" d="M 150.05408 88.42208 
L 157.89448 93.12632 
L 156.357762 94.663038 
L 236.191362 174.496638 
L 236.128638 174.559362 
L 156.295038 94.725762 
L 154.75832 96.26248 
z
" style="fill:#ff004a;stroke:#ff004a;stroke-linejoin:miter;"/>
   </g>
   <g id="patch_9">
    <path clip-path="url(#p29bb7c90ed)" d="M 150.05408 260.63392 
L 154.75832 252.79352 
L 156.295038 254.330238 
L 236.128638 174.496638 
L 236.191362 174.559362 
L 156.357762 254.392962 
L 157.89448 255.92968 
z
" style="fill:#ff004a;stroke:#ff004a;stroke-linejoin:miter;"/>
   </g>
   <g id="patch_10">
    <path clip-path="url(#p29bb7c90ed)" d="M 322.26592 260.63392 
L 314.42552 255.92968 
L 315.962238 254.392962 
L 236.128638 174.559362 
L 236.191362 174.496638 
L 316.024962 254.330238 
L 317.56168 252.79352 
z
" style="fill:#ff004a;stroke:#ff004a;stroke-linejoin:miter;"/>
   </g>
   <g id="matplotlib.axis_1">
    <g id="xtick_1">
     <g id="line2d_1">
      <defs>
       <path d="M 0 0 
L 0 3.5 
" id="ma4f0a2424a" style="stroke:#ffffff;stroke-width:0.8;"/>
      </defs>
      <g>
       <use style="fill:#ffffff;stroke:#ffffff;stroke-width:0.8;" x="147.456" xlink:href="#ma4f0a2424a" y="307.584"/>
      </g>
     </g>
     <g id="text_1">
      <!-- $\mathdefault{−1}$ -->
      <g style="fill:#ffffff;" transform="translate(140.868254 321.712237)scale(0.1 -0.1)">
       <defs>
        <path d="M 65.90625 23 
C 67.59375 23 69.40625 23 69.40625 25 
C 69.40625 27 67.59375 27 65.90625 27 
L 11.796875 27 
C 10.09375 27 8.296875 27 8.296875 25 
C 8.296875 23 10.09375 23 11.796875 23 
z
" id="CMSY10-0"/>
        <path d="M 6.703125 56 
L 7.703125 56 
L 20.59375 61.8125 
C 20.703125 61.90625 20.796875 61.90625 20.90625 61.90625 
C 21.5 61.90625 21.703125 61.015625 21.703125 58.609375 
L 21.703125 9.578125 
C 21.703125 4.3125 20.59375 3.203125 15.203125 3.203125 
L 9.59375 3.203125 
L 9.59375 0 
C 25 0 25 0 26.09375 0 
C 27.40625 0 29.59375 0 33 0 
C 34.203125 0 37.703125 0 41.796875 0 
L 41.796875 3.203125 
L 36.59375 3.203125 
C 31.09375 3.203125 30.09375 4.3125 30.09375 9.5625 
L 30.09375 69.421875 
L 28.703125 69.921875 
C 22.203125 66.515625 15.09375 63.515625 6 60.3125 
z
" id="URW_Palladio_L_Roman-49"/>
       </defs>
       <use transform="scale(1.038107)" xlink:href="#CMSY10-0"/>
       <use transform="translate(81.941696 0)scale(0.996264)" xlink:href="#URW_Palladio_L_Roman-49"/>
      </g>
     </g>
    </g>
    <g id="xtick_2">
     <g id="line2d_2">
      <g>
       <use style="fill:#ffffff;stroke:#ffffff;stroke-width:0.8;" x="236.16" xlink:href="#ma4f0a2424a" y="307.584"/>
      </g>
     </g>
     <g id="text_2">
      <!-- $\mathdefault{0}$ -->
      <g style="fill:#ffffff;" transform="translate(233.66934 321.712237)scale(0.1 -0.1)">
       <defs>
        <path d="M 26.296875 69 
C 10.796875 69 2.90625 56.6875 2.90625 32.453125 
C 2.90625 20.71875 5 10.625 8.5 5.71875 
C 12 0.796875 17.59375 -2 23.796875 -2 
C 38.90625 -2 46.5 11.015625 46.5 36.65625 
C 46.5 58.578125 40 69 26.296875 69 
z
M 24.5 65.5 
C 34.203125 65.5 38.09375 55.6875 38.09375 31.640625 
C 38.09375 10.328125 34.296875 1.5 25.09375 1.5 
C 15.40625 1.5 11.296875 11.625 11.296875 36.0625 
C 11.296875 57.1875 15 65.5 24.5 65.5 
z
" id="URW_Palladio_L_Roman-48"/>
       </defs>
       <use transform="scale(0.996264)" xlink:href="#URW_Palladio_L_Roman-48"/>
      </g>
     </g>
    </g>
    <g id="xtick_3">
     <g id="line2d_3">
      <g>
       <use style="fill:#ffffff;stroke:#ffffff;stroke-width:0.8;" x="324.864" xlink:href="#ma4f0a2424a" y="307.584"/>
      </g>
     </g>
     <g id="text_3">
      <!-- $\mathdefault{1}$ -->
      <g style="fill:#ffffff;" transform="translate(322.37334 321.712237)scale(0.1 -0.1)">
       <use transform="scale(0.996264)" xlink:href="#URW_Palladio_L_Roman-49"/>
      </g>
     </g>
    </g>
    <g id="text_4">
     <!-- $\delta_x$ -->
     <g style="fill:#ffffff;" transform="translate(231.986047 335.649886)scale(0.1 -0.1)">
      <defs>
       <path d="M 44 68.1875 
C 42.296875 69.5 34.5 71 32 71 
C 24.09375 71 20.59375 66.625 20.59375 60.640625 
C 20.59375 55.265625 22.09375 52.0625 25.203125 45.984375 
C 24.296875 45.390625 23.40625 44.703125 22.703125 44.203125 
C 17.5 39.703125 12.40625 34.8125 8.40625 29.328125 
C 5.5 25.4375 1.703125 19.546875 1.703125 14.078125 
C 1.703125 1.59375 6.296875 -1 12.796875 -1 
C 17.203125 -1 21.09375 1.09375 26.09375 5.390625 
C 27 6.09375 27.796875 6.875 28.59375 7.78125 
C 33.5 12.765625 39.796875 20.53125 39.796875 28.40625 
C 39.796875 37.484375 36.203125 42.578125 32.796875 46.859375 
C 29.203125 51.453125 23.40625 58.71875 23.40625 63.109375 
C 23.40625 65.296875 25.296875 67.796875 28.796875 67.796875 
C 31.796875 67.796875 33.90625 66.609375 36.203125 65.5 
C 37 65.109375 40 63.21875 41.296875 60.71875 
L 42.296875 61.234375 
C 42.796875 62.8125 43.203125 65.390625 44.203125 67.296875 
z
M 32.203125 19.859375 
C 29 12.296875 22.5 4.03125 17 4.03125 
C 12.09375 4.03125 9.296875 8.609375 9.296875 15.1875 
C 9.296875 16.78125 10 19.46875 10.5 21.265625 
C 12.796875 29.4375 18.296875 36.203125 25.09375 41.703125 
C 25.59375 42.09375 26.203125 42.484375 27.09375 42.984375 
C 30 38 33.296875 32.21875 33.296875 25.0625 
C 33.296875 23.46875 32.59375 20.875 32.203125 19.859375 
z
" id="Pazo_Math_Italic-100"/>
       <path d="M 2.09375 8.84375 
C 2.09375 6.84375 1.90625 5.578125 1.296875 2.390625 
C 1.09375 1.203125 1 0.90625 0.90625 0.203125 
C 2.40625 -0.609375 4 -1 5.203125 -1 
C 8.5 -1 12.40625 1.890625 15.5 6.546875 
L 23.09375 18.1875 
L 24.203125 11.328125 
C 25.5 2.875 27.796875 -1 31.40625 -1 
C 33.59375 -1 36.796875 0.6875 40 3.578125 
L 44.90625 7.953125 
L 44 9.84375 
C 40.40625 6.859375 37.90625 5.375 36.296875 5.375 
C 34.796875 5.375 33.5 6.375 32.5 8.34375 
C 31.59375 10.234375 30.5 13.90625 30 16.796875 
L 28.203125 26.8125 
L 31.703125 31.6875 
C 36.40625 38.140625 39.09375 40.421875 42.203125 40.421875 
C 43.796875 40.421875 45 39.625 45.5 38.140625 
L 46.90625 38.53125 
L 48.40625 47 
C 47.203125 47.703125 46.296875 48 45.40625 48 
C 41.40625 48 37.40625 44.40625 31.203125 35.265625 
L 27.5 29.796875 
L 26.90625 34.5625 
C 25.703125 44.40625 23 48 17.09375 48 
C 14.5 48 12.296875 47.203125 11.40625 45.90625 
L 5.59375 37.640625 
L 7.296875 36.65625 
C 10.296875 40.03125 12.296875 41.421875 14.203125 41.421875 
C 17.5 41.421875 19.703125 37.359375 21.40625 27.609375 
L 22.5 21.453125 
L 18.5 15.265625 
C 14.203125 8.578125 10.796875 5.375 8 5.375 
C 6.5 5.375 5.40625 5.796875 5.203125 6.296875 
L 4.09375 9.140625 
z
" id="URW_Palladio_L_Italic-120"/>
      </defs>
      <use transform="scale(0.996264)" xlink:href="#Pazo_Math_Italic-100"/>
      <use transform="translate(45.620914 -14.943915)scale(0.757155)" xlink:href="#URW_Palladio_L_Italic-120"/>
     </g>
    </g>
   </g>
   <g id="matplotlib.axis_2">
    <g id="ytick_1">
     <g id="line2d_4">
      <defs>
       <path d="M 0 0 
L -3.5 0 
" id="m0b4bd12ce5" style="stroke:#ffffff;stroke-width:0.8;"/>
      </defs>
      <g>
       <use style="fill:#ffffff;stroke:#ffffff;stroke-width:0.8;" x="103.104" xlink:href="#m0b4bd12ce5" y="263.232"/>
      </g>
     </g>
     <g id="text_5">
      <!-- $\mathdefault{−1}$ -->
      <g style="fill:#ffffff;" transform="translate(82.928509 266.796119)scale(0.1 -0.1)">
       <use transform="scale(1.038107)" xlink:href="#CMSY10-0"/>
       <use transform="translate(81.941696 0)scale(0.996264)" xlink:href="#URW_Palladio_L_Roman-49"/>
      </g>
     </g>
    </g>
    <g id="ytick_2">
     <g id="line2d_5">
      <g>
       <use style="fill:#ffffff;stroke:#ffffff;stroke-width:0.8;" x="103.104" xlink:href="#m0b4bd12ce5" y="174.528"/>
      </g>
     </g>
     <g id="text_6">
      <!-- $\mathdefault{0}$ -->
      <g style="fill:#ffffff;" transform="translate(91.12268 178.092119)scale(0.1 -0.1)">
       <use transform="scale(0.996264)" xlink:href="#URW_Palladio_L_Roman-48"/>
      </g>
     </g>
    </g>
    <g id="ytick_3">
     <g id="line2d_6">
      <g>
       <use style="fill:#ffffff;stroke:#ffffff;stroke-width:0.8;" x="103.104" xlink:href="#m0b4bd12ce5" y="85.824"/>
      </g>
     </g>
     <g id="text_7">
      <!-- $\mathdefault{1}$ -->
      <g style="fill:#ffffff;" transform="translate(91.12268 89.388119)scale(0.1 -0.1)">
       <use transform="scale(0.996264)" xlink:href="#URW_Palladio_L_Roman-49"/>
      </g>
     </g>
    </g>
    <g id="text_8">
     <!-- $\delta_y$ -->
     <g style="fill:#ffffff;" transform="translate(75.458003 178.637589)rotate(-90)scale(0.1 -0.1)">
      <defs>
       <path d="M -0.703125 -17.546875 
C -0.796875 -18.234375 -0.796875 -18.828125 -0.796875 -19.328125 
C -0.796875 -23.5625 2.90625 -27 7.40625 -27 
C 18 -27 29 -14.734375 34.90625 3.5625 
L 49 47.09375 
L 47.90625 48 
C 45 46.90625 42.703125 46.296875 40.5 46.109375 
L 37 32.984375 
C 35.796875 28.3125 32.296875 21.0625 29 16.1875 
C 25.5 11.109375 20.59375 6.75 18.40625 6.75 
C 17.203125 6.75 16.296875 9.046875 16.40625 11.515625 
L 16.5 12.8125 
L 18 32.09375 
C 18.203125 35.1875 18.40625 38.953125 18.40625 41.734375 
C 18.40625 46.203125 17.703125 48 16 48 
C 14.703125 48 13.296875 47.296875 8.5 44.015625 
L 0.296875 38.453125 
L 1.40625 36.671875 
L 6.40625 39.640625 
L 6.796875 39.953125 
C 7.796875 40.546875 8.5 40.84375 8.90625 40.84375 
C 10.296875 40.84375 11.09375 38.953125 11.09375 35.6875 
C 11.09375 35.578125 11.09375 34.984375 11 34.1875 
L 9.296875 10.03125 
L 9.203125 6.046875 
C 9.203125 1.890625 11 -1 13.5 -1 
C 17.203125 -1 25.59375 7.453125 33.09375 18.671875 
L 28.203125 1.8125 
C 23.09375 -15.625 18.09375 -22.8125 11.09375 -22.8125 
C 7.59375 -22.8125 4.90625 -20.171875 4.90625 -16.75 
C 4.90625 -16.25 5 -15.46875 5.09375 -14.59375 
L 4.09375 -14.1875 
z
" id="URW_Palladio_L_Italic-121"/>
      </defs>
      <use transform="scale(0.996264)" xlink:href="#Pazo_Math_Italic-100"/>
      <use transform="translate(44.333733 -14.943915)scale(0.757155)" xlink:href="#URW_Palladio_L_Italic-121"/>
     </g>
    </g>
   </g>
   <g id="line2d_7">
    <path clip-path="url(#p29bb7c90ed)" d="M 103.104 130.176 
L 369.216 130.176 
" style="fill:none;stroke:#ffffff;stroke-linecap:square;stroke-width:1.5;"/>
   </g>
   <g id="line2d_8">
    <path clip-path="url(#p29bb7c90ed)" d="M 103.104 218.88 
L 369.216 218.88 
" style="fill:none;stroke:#ffffff;stroke-linecap:square;stroke-width:1.5;"/>
   </g>
   <g id="line2d_9">
    <path clip-path="url(#p29bb7c90ed)" d="M 280.512 307.584 
L 280.512 41.472 
" style="fill:none;stroke:#ffffff;stroke-linecap:square;stroke-width:1.5;"/>
   </g>
   <g id="line2d_10">
    <path clip-path="url(#p29bb7c90ed)" d="M 191.808 307.584 
L 191.808 41.472 
" style="fill:none;stroke:#8dd3c7;stroke-linecap:square;stroke-width:1.5;"/>
   </g>
   <g id="line2d_11">
    <path clip-path="url(#p29bb7c90ed)" d="M 236.16 174.528 
" style="fill:none;stroke:#ff004a;stroke-linecap:square;stroke-width:1.5;"/>
    <defs>
     <path d="M 0 3 
C 0.795609 3 1.55874 2.683901 2.12132 2.12132 
C 2.683901 1.55874 3 0.795609 3 0 
C 3 -0.795609 2.683901 -1.55874 2.12132 -2.12132 
C 1.55874 -2.683901 0.795609 -3 0 -3 
C -0.795609 -3 -1.55874 -2.683901 -2.12132 -2.12132 
C -2.683901 -1.55874 -3 -0.795609 -3 0 
C -3 0.795609 -2.683901 1.55874 -2.12132 2.12132 
C -1.55874 2.683901 -0.795609 3 0 3 
z
" id="mc73b1e5d3e" style="stroke:#ff004a;"/>
    </defs>
    <g clip-path="url(#p29bb7c90ed)">
     <use style="fill:#ff004a;stroke:#ff004a;" x="236.16" xlink:href="#mc73b1e5d3e" y="174.528"/>
    </g>
   </g>
   <g id="patch_11">
    <path d="M 103.104 307.584 
L 103.104 41.472 
" style="fill:none;stroke:#ffffff;stroke-linecap:square;stroke-linejoin:miter;stroke-width:0.8;"/>
   </g>
   <g id="patch_12">
    <path d="M 369.216 307.584 
L 369.216 41.472 
" style="fill:none;stroke:#ffffff;stroke-linecap:square;stroke-linejoin:miter;stroke-width:0.8;"/>
   </g>
   <g id="patch_13">
    <path d="M 103.104 307.584 
L 369.216 307.584 
" style="fill:none;stroke:#ffffff;stroke-linecap:square;stroke-linejoin:miter;stroke-width:0.8;"/>
   </g>
   <g id="patch_14">
    <path d="M 103.104 41.472 
L 369.216 41.472 
" style="fill:none;stroke:#ffffff;stroke-linecap:square;stroke-linejoin:miter;stroke-width:0.8;"/>
   </g>
   <g id="text_9">
    <!-- $\vec{e}_1$ -->
    <g style="fill:#ffffff;" transform="translate(226.974467 178.846826)scale(0.2 -0.2)">
     <defs>
      <path d="M 53.703125 59.28125 
C 52.296875 57.984375 49 55.1875 49 53.375 
C 49 52.375 50 51.375 51 51.375 
C 51.90625 51.375 52.40625 52.078125 52.90625 52.6875 
C 54.09375 54.1875 56.40625 56.984375 60.796875 59.1875 
C 61.5 59.578125 62.5 60.078125 62.5 61.28125 
C 62.5 62.28125 61.796875 62.78125 61.09375 63.28125 
C 58.90625 64.78125 57.796875 66.578125 57 68.984375 
C 56.796875 69.875 56.40625 71.1875 55 71.1875 
C 53.59375 71.1875 53 69.875 53 69.078125 
C 53 68.578125 53.796875 65.375 55.40625 63.28125 
L 21.703125 63.28125 
C 20 63.28125 18.203125 63.28125 18.203125 61.28125 
C 18.203125 59.28125 20 59.28125 21.703125 59.28125 
z
" id="CMMI10-126"/>
      <path d="M 32.796875 11.125 
L 30.40625 9.4375 
C 25.09375 5.671875 20.296875 3.671875 16.703125 3.671875 
C 12 3.671875 9.09375 7.359375 9.09375 13.328125 
C 9.09375 15.796875 9.40625 18.484375 9.90625 21.375 
L 18.09375 23.34375 
C 19.796875 23.75 22.5 24.75 25 25.84375 
C 33.5 29.515625 37.40625 34.09375 37.40625 40.25 
C 37.40625 44.90625 34 48 29 48 
C 22.5 48 11.40625 41.140625 7.5 34.78125 
C 4.5 29.8125 1.5 17.984375 1.5 11.3125 
C 1.5 3.5625 5.90625 -1 13.09375 -1 
C 18.796875 -1 24.40625 1.78125 33.59375 9.234375 
z
M 11.296875 27.3125 
C 13 34.171875 15 38.453125 17.90625 41.03125 
C 19.703125 42.625 22.796875 43.8125 25.203125 43.8125 
C 28.09375 43.8125 30 41.828125 30 38.65625 
C 30 34.265625 26.5 29.609375 21.296875 27.109375 
C 18.5 25.734375 14.90625 24.640625 10.40625 23.640625 
z
" id="URW_Palladio_L_Italic-101"/>
     </defs>
     <use transform="translate(0 0.149358)scale(1.038107)" xlink:href="#CMMI10-126"/>
     <use transform="translate(14.495599 0)scale(0.996264)" xlink:href="#URW_Palladio_L_Italic-101"/>
     <use transform="translate(53.997537 -18.577338)scale(0.757155)" xlink:href="#URW_Palladio_L_Roman-49"/>
    </g>
   </g>
   <g id="text_10">
    <!-- $\vec{e}_2$ -->
    <g style="fill:#ffffff;" transform="translate(315.678467 178.846826)scale(0.2 -0.2)">
     <defs>
      <path d="M 1.59375 2.5 
L 1.59375 0 
C 20.296875 0 20.296875 0 23.90625 0 
C 27.5 0 27.5 0 46.796875 0 
C 46.59375 1.953125 46.59375 2.90625 46.59375 4.203125 
C 46.59375 5.4375 46.59375 6.359375 46.796875 8.421875 
C 35.296875 8.421875 30.703125 8.421875 12.203125 8.421875 
L 30.40625 27.515625 
C 40.09375 37.71875 43.09375 43.171875 43.09375 50.59375 
C 43.09375 61.96875 35.296875 69 22.59375 69 
C 15.40625 69 10.5 67 5.59375 62.015625 
L 3.90625 48.421875 
L 6.796875 48.421875 
L 8.09375 53.015625 
C 9.703125 58.796875 13.296875 61.296875 20 61.296875 
C 28.59375 61.296875 34.09375 55.890625 34.09375 47.421875 
C 34.09375 39.921875 29.90625 32.546875 18.59375 20.5625 
z
" id="URW_Palladio_L_Roman-50"/>
     </defs>
     <use transform="translate(0 0.149358)scale(1.038107)" xlink:href="#CMMI10-126"/>
     <use transform="translate(14.495599 0)scale(0.996264)" xlink:href="#URW_Palladio_L_Italic-101"/>
     <use transform="translate(53.997537 -17.441431)scale(0.757155)" xlink:href="#URW_Palladio_L_Roman-50"/>
    </g>
   </g>
   <g id="text_11">
    <!-- $\vec{e}_3$ -->
    <g style="fill:#ffffff;" transform="translate(226.974467 90.142826)scale(0.2 -0.2)">
     <defs>
      <path d="M 4.296875 49.953125 
L 7.40625 49.953125 
L 9.203125 55.53125 
C 10.296875 58.90625 16.59375 62.296875 21.796875 62.296875 
C 28.296875 62.296875 33.59375 57.015625 33.59375 50.75 
C 33.59375 43.28125 27.703125 37 20.59375 37 
C 19.796875 37 18.703125 37 17.40625 37.203125 
L 15.90625 37.203125 
L 14.703125 31.984375 
L 15.40625 31.375 
C 19.203125 33.09375 21.09375 33.59375 23.796875 33.59375 
C 32.09375 33.59375 36.90625 28.265625 36.90625 19.09375 
C 36.90625 8.84375 30.796875 2.109375 21.5 2.109375 
C 16.90625 2.109375 12.796875 3.609375 9.796875 6.421875 
C 7.40625 8.640625 6.09375 10.953125 4.203125 16.390625 
L 1.5 15.390625 
C 3.59375 9.265625 4.40625 5.640625 5 0.609375 
C 10.296875 -1.203125 14.703125 -2 18.40625 -2 
C 26.40625 -2 35.59375 2.515625 41.09375 9.265625 
C 44.5 13.390625 46.203125 17.8125 46.203125 22.53125 
C 46.203125 27.359375 44.203125 31.59375 40.59375 34.09375 
C 38.09375 35.90625 35.796875 36.71875 30.796875 37.609375 
C 38.796875 43.796875 41.796875 48.375 41.796875 54.25 
C 41.796875 63.125 34.40625 69 23.296875 69 
C 16.5 69 12 67.109375 7.203125 62.328125 
z
" id="URW_Palladio_L_Roman-51"/>
     </defs>
     <use transform="translate(0 0.149358)scale(1.038107)" xlink:href="#CMMI10-126"/>
     <use transform="translate(14.495599 0)scale(0.996264)" xlink:href="#URW_Palladio_L_Italic-101"/>
     <use transform="translate(53.997537 -17.441431)scale(0.757155)" xlink:href="#URW_Palladio_L_Roman-51"/>
    </g>
   </g>
   <g id="text_12">
    <!-- $\vec{e}_4$ -->
    <g style="fill:#ffffff;" transform="translate(138.270467 178.846826)scale(0.2 -0.2)">
     <defs>
      <path d="M 28 18 
L 28 10.515625 
C 28 4.515625 26.90625 3.109375 22 3.109375 
L 15.796875 3.109375 
L 15.796875 0 
C 29.09375 0 29.09375 0 31.5 0 
C 33.90625 0 33.90625 0 47.203125 0 
L 47.203125 3.109375 
L 42.40625 3.109375 
C 37.5 3.109375 36.40625 4.40625 36.40625 10.453125 
L 36.40625 18 
C 42.296875 18 44.40625 18 47.203125 17.703125 
L 47.203125 24.8125 
C 42.5 24.421875 40.59375 24.421875 39.09375 24.421875 
L 38.796875 24.421875 
L 36.40625 24.421875 
L 36.40625 38.390625 
C 36.40625 56.25 36.59375 64.875 37.09375 69 
L 35.90625 69.5 
L 28.5 66.796875 
L 0.203125 20.296875 
L 1.296875 18 
z
M 28 24.421875 
L 6.5 24.421875 
L 28 59.78125 
z
" id="URW_Palladio_L_Roman-52"/>
     </defs>
     <use transform="translate(0 0.149358)scale(1.038107)" xlink:href="#CMMI10-126"/>
     <use transform="translate(14.495599 0)scale(0.996264)" xlink:href="#URW_Palladio_L_Italic-101"/>
     <use transform="translate(53.997537 -18.577338)scale(0.757155)" xlink:href="#URW_Palladio_L_Roman-52"/>
    </g>
   </g>
   <g id="text_13">
    <!-- $\vec{e}_5$ -->
    <g style="fill:#ffffff;" transform="translate(226.974467 267.550826)scale(0.2 -0.2)">
     <defs>
      <path d="M 12.703125 60.578125 
C 25.59375 60.578125 31.203125 60.578125 43.203125 60.578125 
L 43.703125 61.046875 
C 43.5 62.75 43.5 63.5 43.5 64.75 
C 43.5 66.078125 43.5 66.828125 43.703125 68.53125 
L 43.203125 69 
C 35.703125 69 31.203125 69 25.796875 69 
C 20.296875 69 15.90625 69 8.40625 69 
L 7.90625 68.796875 
C 8 62.671875 8.09375 58.265625 8.09375 55.046875 
C 8.09375 46.515625 7.796875 36.875 7.5 32.453125 
L 9.5 31.84375 
C 14.203125 36.578125 16.90625 38 21.796875 38 
C 31.40625 38 37.40625 31.140625 37.40625 20.25 
C 37.40625 9.0625 31 2.5 20.09375 2.5 
C 14.703125 2.5 9.703125 4.328125 8.296875 6.9375 
L 3.703125 15.203125 
L 1.296875 13.796875 
C 3.59375 8.0625 4.796875 4.84375 6.203125 0.421875 
C 9 -1.109375 13 -2 17.296875 -2 
C 24 -2 31.09375 0.921875 36.59375 5.75 
C 42.703125 11.1875 45.90625 18.03125 45.90625 25.46875 
C 45.90625 36.859375 37.796875 44.90625 26.40625 44.90625 
C 21.59375 44.90625 18 43.609375 11.796875 39.90625 
z
" id="URW_Palladio_L_Roman-53"/>
     </defs>
     <use transform="translate(0 0.149358)scale(1.038107)" xlink:href="#CMMI10-126"/>
     <use transform="translate(14.495599 0)scale(0.996264)" xlink:href="#URW_Palladio_L_Italic-101"/>
     <use transform="translate(53.997537 -17.441431)scale(0.757155)" xlink:href="#URW_Palladio_L_Roman-53"/>
    </g>
   </g>
   <g id="text_14">
    <!-- $\vec{e}_6$ -->
    <g style="fill:#ffffff;" transform="translate(315.678467 90.142826)scale(0.2 -0.2)">
     <defs>
      <path d="M 41.59375 67.34375 
L 37.90625 69.046875 
C 28.296875 65.84375 24.203125 63.84375 19.09375 59.4375 
C 8.796875 50.71875 3.203125 38.5 3.203125 24.765625 
C 3.203125 8.21875 11.203125 -2 24.09375 -2 
C 37.09375 -2 46.796875 8.3125 46.796875 21.953125 
C 46.796875 33.484375 39.90625 41 29.296875 41 
C 24.296875 41 21.296875 39.6875 15.40625 34.984375 
C 14.296875 34.078125 14.203125 33.984375 13.09375 33.1875 
C 15.203125 51.3125 23.59375 61.140625 41.59375 66.546875 
z
M 25.5 34.984375 
C 33.09375 34.984375 38.203125 28.375 38.203125 18.453125 
C 38.203125 8.015625 33.09375 1.296875 25.40625 1.296875 
C 16.90625 1.296875 12.296875 8.609375 12.296875 22.0625 
C 12.296875 25.5625 12.703125 27.46875 13.796875 29.171875 
C 16 32.578125 20.703125 34.984375 25.5 34.984375 
z
" id="URW_Palladio_L_Roman-54"/>
     </defs>
     <use transform="translate(0 0.149358)scale(1.038107)" xlink:href="#CMMI10-126"/>
     <use transform="translate(14.495599 0)scale(0.996264)" xlink:href="#URW_Palladio_L_Italic-101"/>
     <use transform="translate(53.997537 -17.441431)scale(0.757155)" xlink:href="#URW_Palladio_L_Roman-54"/>
    </g>
   </g>
   <g id="text_15">
    <!-- $\vec{e}_7$ -->
    <g style="fill:#ffffff;" transform="translate(138.270467 90.142826)scale(0.2 -0.2)">
     <defs>
      <path d="M 5.59375 0.5 
L 6.5 -0.796875 
C 10.40625 -0.5 10.40625 -0.5 11.09375 -0.5 
C 11.796875 -0.5 11.796875 -0.5 15.703125 -0.796875 
C 19.90625 10.140625 24.796875 20.578125 31.40625 32.609375 
L 49.703125 65.609375 
L 49.703125 68.3125 
C 38.90625 68.3125 35.40625 68.3125 27.296875 68.3125 
C 20 68.3125 15.09375 68.3125 5.40625 68.3125 
L 4.40625 68.109375 
C 4.703125 58.59375 4.703125 58.59375 4.703125 57.578125 
C 4.703125 56.46875 4.703125 56.46875 4.40625 47.359375 
L 7.40625 47.359375 
L 8.09375 52.96875 
C 8.90625 59.203125 9.59375 60 14.203125 60 
L 40.90625 60 
C 36.90625 51.765625 33.796875 45.953125 30 39.828125 
z
" id="URW_Palladio_L_Roman-55"/>
     </defs>
     <use transform="translate(0 0.149358)scale(1.038107)" xlink:href="#CMMI10-126"/>
     <use transform="translate(14.495599 0)scale(0.996264)" xlink:href="#URW_Palladio_L_Italic-101"/>
     <use transform="translate(53.997537 -17.441431)scale(0.757155)" xlink:href="#URW_Palladio_L_Roman-55"/>
    </g>
   </g>
   <g id="text_16">
    <!-- $\vec{e}_8$ -->
    <g style="fill:#ffffff;" transform="translate(138.270467 267.550826)scale(0.2 -0.2)">
     <defs>
      <path d="M 16.796875 34.546875 
C 12.703125 32.65625 11 31.546875 8.796875 29.4375 
C 5 25.640625 3 21.125 3 15.921875 
C 3 5.609375 11.296875 -2 22.59375 -2 
C 35.59375 -2 46.40625 8.21875 46.40625 20.625 
C 46.40625 28.640625 42.703125 32.953125 31.296875 38.15625 
C 40.40625 44.375 43.59375 48.578125 43.59375 54.578125 
C 43.59375 63.1875 36.5 69 25.90625 69 
C 14 69 5.296875 61.390625 5.296875 50.890625 
C 5.296875 44.078125 8 40.265625 16.796875 34.546875 
z
M 28.40625 29.546875 
C 34.703125 26.734375 38.5 21.828125 38.5 16.4375 
C 38.5 8.015625 32.203125 1.40625 24.09375 1.40625 
C 15.59375 1.40625 10.09375 7.421875 10.09375 16.734375 
C 10.09375 24.03125 13 28.640625 20.40625 33.15625 
z
M 22.296875 42.375 
C 16 45.46875 12.796875 49.484375 12.796875 54.484375 
C 12.796875 61.09375 17.59375 65.59375 24.703125 65.59375 
C 32 65.59375 36.796875 60.796875 36.796875 53.46875 
C 36.796875 47.78125 34.296875 43.875 27.796875 39.65625 
z
" id="URW_Palladio_L_Roman-56"/>
     </defs>
     <use transform="translate(0 0.149358)scale(1.038107)" xlink:href="#CMMI10-126"/>
     <use transform="translate(14.495599 0)scale(0.996264)" xlink:href="#URW_Palladio_L_Italic-101"/>
     <use transform="translate(53.997537 -17.441431)scale(0.757155)" xlink:href="#URW_Palladio_L_Roman-56"/>
    </g>
   </g>
   <g id="text_17">
    <!-- $\vec{e}_9$ -->
    <g style="fill:#ffffff;" transform="translate(315.678467 267.550826)scale(0.2 -0.2)">
     <defs>
      <path d="M 9.59375 -1.65625 
C 20.703125 1.953125 25.5 4.25 30.90625 8.84375 
C 40.59375 17.15625 45.703125 28.671875 45.703125 42.078125 
C 45.703125 59 37.59375 69.296875 24.40625 69.296875 
C 11.59375 69.296875 2 59.296875 2 45.90625 
C 2 34.390625 9.5 26 19.90625 26 
C 23.296875 26 27.203125 27.09375 29 28.59375 
L 36 34.40625 
C 35.203125 17.578125 24.296875 5.25 6.203125 0.84375 
L 6.203125 0.046875 
z
M 24 66 
C 28.5 66 31.796875 64.09375 34 60.09375 
C 35.796875 56.890625 37 52 37 47.5 
C 37 38.296875 31.703125 32.109375 24 32.109375 
C 16 32.109375 10.59375 39.203125 10.59375 49.59375 
C 10.59375 59.703125 15.796875 66 24 66 
z
" id="URW_Palladio_L_Roman-57"/>
     </defs>
     <use transform="translate(0 0.149358)scale(1.038107)" xlink:href="#CMMI10-126"/>
     <use transform="translate(14.495599 0)scale(0.996264)" xlink:href="#URW_Palladio_L_Italic-101"/>
     <use transform="translate(53.997537 -17.441431)scale(0.757155)" xlink:href="#URW_Palladio_L_Roman-57"/>
    </g>
   </g>
  </g>
 </g>
 <defs>
  <clipPath id="p29bb7c90ed">
   <rect height="266.112" width="266.112" x="103.104" y="41.472"/>
  </clipPath>
 </defs>
</svg>
